<svg xmlns="http://www.w3.org/2000/svg" width="32" height="32"><path fill-rule="evenodd" d="M6.536.113C4.506.33 3.166.976 1.87 2.36c-.495.529-.682.801-1.014 1.48C.364 4.841.178 5.58.063 6.986-.054 8.423.005 25.16.13 25.861c.179 1.004.33 1.481.726 2.289.332.678.519.95 1.014 1.48 1.322 1.41 2.617 2.021 4.778 2.252 1.482.157 17.223.157 18.705 0 1.995-.213 3.22-.739 4.44-1.905 1.363-1.301 1.942-2.646 2.145-4.98.116-1.338.056-18.177-.067-18.87-.179-1.003-.33-1.48-.726-2.288-.332-.678-.519-.95-1.015-1.48C28.808.949 27.496.33 25.353.107 23.952-.039 7.898-.034 6.536.113Zm6.416 7.478.318.642.299-.048c1.164-.186 3.63-.186 4.881 0l.281.043.209-.471c.115-.259.266-.545.337-.636l.128-.165.823.175c1.038.221 1.727.42 2.768.799 1.279.466 1.298.479 1.767 1.188 2.265 3.424 3.43 7.554 3.248 11.511-.028.596-.067 1.152-.087 1.236-.067.284-2.11 1.534-3.585 2.194-.89.398-2.29.906-2.491.904-.154-.001-1.44-1.96-1.347-2.053.016-.017.315-.152.664-.3.348-.15.783-.358.965-.464l.332-.194-.197-.169-.197-.169-.733.287c-.978.384-1.898.646-2.94.837-1.231.226-3.558.226-4.789 0-1.197-.22-2.275-.546-3.59-1.086-.065-.027-.208.031-.333.134l-.22.18.669.325c.368.179.812.382.987.452.175.07.318.173.318.229 0 .11-.64 1.186-1.025 1.726l-.24.334-.62-.212a19.386 19.386 0 0 1-2.756-1.168c-1.213-.616-2.667-1.568-2.718-1.78-.103-.424-.133-2.35-.052-3.367.27-3.419 1.302-6.441 3.21-9.403l.42-.65.75-.295c1.249-.49 3.419-1.115 4.172-1.2.031-.004.2.282.374.634Zm-1.713 7.123c-1.157.54-1.662 1.992-1.114 3.206.388.861 1.11 1.327 1.976 1.274.811-.05 1.38-.433 1.787-1.205.18-.344.204-.468.203-1.098 0-.6-.029-.767-.183-1.08-.222-.449-.614-.855-1.015-1.05-.433-.21-1.255-.233-1.654-.047Zm8.064-.044c-.384.122-1.012.739-1.215 1.192-.249.555-.252 1.504-.007 2.039.664 1.45 2.419 1.757 3.436.602.405-.46.58-.971.576-1.686-.004-.663-.168-1.089-.604-1.572-.533-.591-1.412-.822-2.186-.575Z" clip-rule="evenodd"/></svg>