<svg xmlns="http://www.w3.org/2000/svg" width="32" height="32"><path d="M15.996 10.664A5.347 5.347 0 0 0 10.66 16a5.347 5.347 0 0 0 5.336 5.335A5.347 5.347 0 0 0 21.33 16a5.347 5.347 0 0 0-5.335-5.336ZM31.998 16c0-2.21.02-4.399-.104-6.604-.124-2.562-.708-4.836-2.581-6.709C27.434.81 25.166.23 22.604.106 20.394-.02 18.205 0 16 0c-2.21 0-4.4-.02-6.605.105C6.834.23 4.56.814 2.687 2.687.81 4.564.229 6.834.105 9.396-.019 11.606.001 13.794.001 16c0 2.205-.02 4.399.104 6.604.124 2.562.709 4.835 2.582 6.709 1.877 1.877 4.147 2.457 6.708 2.581 2.21.125 4.4.105 6.605.105 2.21 0 4.399.02 6.604-.105 2.562-.124 4.835-.708 6.709-2.581 1.877-1.877 2.457-4.147 2.581-6.709.128-2.205.104-4.395.104-6.604Zm-16.002 8.21A8.198 8.198 0 0 1 7.786 16a8.198 8.198 0 0 1 8.21-8.21 8.198 8.198 0 0 1 8.21 8.21 8.198 8.198 0 0 1-8.21 8.21ZM24.54 9.371a1.915 1.915 0 0 1-1.917-1.918c0-1.06.857-1.917 1.917-1.917a1.915 1.915 0 0 1 1.772 2.651 1.916 1.916 0 0 1-1.772 1.184Z"/></svg>