<svg xmlns="http://www.w3.org/2000/svg" width="32" height="32"><path fill-rule="evenodd" d="M14.48.039c-5.008.52-9.396 3.245-12.062 7.49-3.78 6.018-3.067 14.009 1.716 19.215 2.659 2.893 5.951 4.614 9.907 5.178.743.106 3.202.104 3.974-.003 3.895-.54 7.185-2.257 9.84-5.136 2.181-2.367 3.581-5.398 4.066-8.807.105-.736.105-3.208 0-3.945-.441-3.103-1.642-5.908-3.483-8.14C25.823 2.72 22.289.723 18.234.122c-.768-.114-2.99-.164-3.755-.084Zm8.67 9.799c.366.35.37.59.054 2.94-.28 2.092-1.255 7.988-1.598 9.676-.127.625-.368 1.15-.638 1.387-.213.187-.236.192-.695.165-.324-.02-.56-.073-.747-.169-.424-.218-5.268-3.503-5.54-3.756-.293-.274-.432-.572-.376-.806.079-.326.465-.754 1.854-2.05 1.704-1.592 3.518-3.364 3.65-3.567.132-.2.028-.41-.202-.41-.21 0-.074-.085-3.901 2.466-1.807 1.204-3.441 2.266-3.63 2.36-.565.28-.963.334-1.619.22-.551-.095-2.26-.584-2.967-.85-.747-.28-.94-.657-.531-1.045.265-.253.305-.272 3.119-1.494 7.545-3.278 11.349-4.847 12.6-5.197.492-.139.939-.089 1.167.13Z" clip-rule="evenodd"/></svg>